<mxfile host="app.diagrams.net" modified="2022-03-02T16:10:56.925Z" agent="5.0 (X11; Linux x86_64) AppleWebKit/537.36 (KHTML, like Gecko) Chrome/98.0.4758.102 Safari/537.36" etag="XteKLAOF1NqUikrui9J5" version="16.6.2" type="github">
  <diagram id="WjUNGHwMzSirIl8Kj8x7" name="Page-1">
    <mxGraphModel dx="1350" dy="773" grid="1" gridSize="10" guides="1" tooltips="1" connect="1" arrows="1" fold="1" page="1" pageScale="1" pageWidth="827" pageHeight="1169" math="0" shadow="0">
      <root>
        <mxCell id="0" />
        <mxCell id="1" parent="0" />
        <mxCell id="cMpkV4AQ1__JPrFJ5bLk-4" value="" style="endArrow=none;html=1;rounded=0;" edge="1" parent="1">
          <mxGeometry width="50" height="50" relative="1" as="geometry">
            <mxPoint x="240" y="200" as="sourcePoint" />
            <mxPoint x="600" y="200" as="targetPoint" />
          </mxGeometry>
        </mxCell>
        <mxCell id="cMpkV4AQ1__JPrFJ5bLk-5" value="" style="endArrow=none;html=1;rounded=0;" edge="1" parent="1">
          <mxGeometry width="50" height="50" relative="1" as="geometry">
            <mxPoint x="280" y="160" as="sourcePoint" />
            <mxPoint x="280" y="520" as="targetPoint" />
          </mxGeometry>
        </mxCell>
        <mxCell id="cMpkV4AQ1__JPrFJ5bLk-6" value="&lt;font style=&quot;font-size: 18px&quot;&gt;i&lt;/font&gt;" style="text;html=1;strokeColor=none;fillColor=none;align=center;verticalAlign=middle;whiteSpace=wrap;rounded=0;" vertex="1" parent="1">
          <mxGeometry x="390" y="172" width="60" height="30" as="geometry" />
        </mxCell>
        <mxCell id="cMpkV4AQ1__JPrFJ5bLk-7" value="j" style="text;html=1;strokeColor=none;fillColor=none;align=center;verticalAlign=middle;whiteSpace=wrap;rounded=0;fontSize=18;" vertex="1" parent="1">
          <mxGeometry x="440" y="169" width="60" height="30" as="geometry" />
        </mxCell>
        <mxCell id="cMpkV4AQ1__JPrFJ5bLk-8" value="&lt;span style=&quot;color: rgb(0, 0, 0); font-family: helvetica; font-size: 18px; font-style: normal; font-weight: 400; letter-spacing: normal; text-align: center; text-indent: 0px; text-transform: none; word-spacing: 0px; background-color: rgb(248, 249, 250); display: inline; float: none;&quot;&gt;i&lt;/span&gt;" style="text;whiteSpace=wrap;html=1;fontSize=18;" vertex="1" parent="1">
          <mxGeometry x="255" y="320" width="30" height="40" as="geometry" />
        </mxCell>
        <mxCell id="cMpkV4AQ1__JPrFJ5bLk-9" value="j" style="text;html=1;strokeColor=none;fillColor=none;align=center;verticalAlign=middle;whiteSpace=wrap;rounded=0;fontSize=18;" vertex="1" parent="1">
          <mxGeometry x="228" y="360" width="60" height="30" as="geometry" />
        </mxCell>
        <mxCell id="cMpkV4AQ1__JPrFJ5bLk-10" value=".&amp;nbsp; &amp;nbsp;.&amp;nbsp; &amp;nbsp;." style="text;html=1;strokeColor=none;fillColor=none;align=center;verticalAlign=middle;whiteSpace=wrap;rounded=0;fontSize=18;" vertex="1" parent="1">
          <mxGeometry x="310" y="172" width="90" height="30" as="geometry" />
        </mxCell>
        <mxCell id="cMpkV4AQ1__JPrFJ5bLk-11" value=".&amp;nbsp; &amp;nbsp;.&amp;nbsp; &amp;nbsp;." style="text;html=1;strokeColor=none;fillColor=none;align=center;verticalAlign=middle;whiteSpace=wrap;rounded=0;fontSize=18;" vertex="1" parent="1">
          <mxGeometry x="490" y="172" width="90" height="30" as="geometry" />
        </mxCell>
        <mxCell id="cMpkV4AQ1__JPrFJ5bLk-12" value=".&lt;br&gt;.&lt;br&gt;." style="text;html=1;strokeColor=none;fillColor=none;align=center;verticalAlign=middle;whiteSpace=wrap;rounded=0;fontSize=18;" vertex="1" parent="1">
          <mxGeometry x="228" y="240" width="60" height="30" as="geometry" />
        </mxCell>
        <mxCell id="cMpkV4AQ1__JPrFJ5bLk-14" value=".&lt;br&gt;.&lt;br&gt;." style="text;html=1;strokeColor=none;fillColor=none;align=center;verticalAlign=middle;whiteSpace=wrap;rounded=0;fontSize=18;" vertex="1" parent="1">
          <mxGeometry x="228" y="440" width="60" height="30" as="geometry" />
        </mxCell>
        <mxCell id="cMpkV4AQ1__JPrFJ5bLk-15" value="0" style="text;html=1;strokeColor=none;fillColor=none;align=center;verticalAlign=middle;whiteSpace=wrap;rounded=0;fontSize=18;" vertex="1" parent="1">
          <mxGeometry x="390" y="325" width="60" height="30" as="geometry" />
        </mxCell>
        <mxCell id="cMpkV4AQ1__JPrFJ5bLk-16" value="0" style="text;html=1;strokeColor=none;fillColor=none;align=center;verticalAlign=middle;whiteSpace=wrap;rounded=0;fontSize=18;" vertex="1" parent="1">
          <mxGeometry x="430" y="365" width="60" height="30" as="geometry" />
        </mxCell>
        <mxCell id="cMpkV4AQ1__JPrFJ5bLk-17" value="W&lt;sub&gt;ij&lt;/sub&gt;" style="text;html=1;strokeColor=none;fillColor=none;align=center;verticalAlign=middle;whiteSpace=wrap;rounded=0;fontSize=18;" vertex="1" parent="1">
          <mxGeometry x="430" y="325" width="60" height="30" as="geometry" />
        </mxCell>
        <mxCell id="cMpkV4AQ1__JPrFJ5bLk-19" value="W&lt;span style=&quot;font-size: 15px&quot;&gt;ji&lt;/span&gt;" style="text;html=1;strokeColor=none;fillColor=none;align=center;verticalAlign=middle;whiteSpace=wrap;rounded=0;fontSize=18;" vertex="1" parent="1">
          <mxGeometry x="390" y="365" width="60" height="30" as="geometry" />
        </mxCell>
        <mxCell id="cMpkV4AQ1__JPrFJ5bLk-20" value="&amp;nbsp; .&amp;nbsp; &amp;nbsp; &amp;nbsp; &amp;nbsp; &amp;nbsp; &amp;nbsp;.&amp;nbsp; &amp;nbsp; &amp;nbsp; &amp;nbsp; &amp;nbsp; &amp;nbsp;.&amp;nbsp; &amp;nbsp; &amp;nbsp; &amp;nbsp; &amp;nbsp; &amp;nbsp;.&amp;nbsp; &amp;nbsp;&amp;nbsp;" style="text;html=1;strokeColor=none;fillColor=none;align=center;verticalAlign=middle;whiteSpace=wrap;rounded=0;fontSize=18;" vertex="1" parent="1">
          <mxGeometry x="320" y="240" width="250" height="30" as="geometry" />
        </mxCell>
        <mxCell id="cMpkV4AQ1__JPrFJ5bLk-21" value="." style="text;html=1;strokeColor=none;fillColor=none;align=center;verticalAlign=middle;whiteSpace=wrap;rounded=0;fontSize=18;" vertex="1" parent="1">
          <mxGeometry x="320" y="290" width="60" height="30" as="geometry" />
        </mxCell>
        <mxCell id="cMpkV4AQ1__JPrFJ5bLk-22" value="." style="text;html=1;strokeColor=none;fillColor=none;align=center;verticalAlign=middle;whiteSpace=wrap;rounded=0;fontSize=18;" vertex="1" parent="1">
          <mxGeometry x="320" y="420" width="60" height="30" as="geometry" />
        </mxCell>
        <mxCell id="cMpkV4AQ1__JPrFJ5bLk-23" value="." style="text;html=1;strokeColor=none;fillColor=none;align=center;verticalAlign=middle;whiteSpace=wrap;rounded=0;fontSize=18;" vertex="1" parent="1">
          <mxGeometry x="320" y="360" width="60" height="30" as="geometry" />
        </mxCell>
      </root>
    </mxGraphModel>
  </diagram>
</mxfile>
